<svg width="88" height="131" viewBox="0 0 88 131" fill="none" xmlns="http://www.w3.org/2000/svg">
<path d="M28 115L60 131V67L28 51V115Z" fill="url(#paint0_linear_1_112)"/>
<path d="M60 131L88 115V51L60 67V131Z" fill="#007AFF"/>
<path d="M0 67V131L28 115V51L0 67Z" fill="#34C759"/>
<path d="M76 34.1364C76 59.9091 44 82 44 82C44 82 12 59.9091 12 34.1364C12 25.3481 15.3714 16.9197 21.3726 10.7054C27.3737 4.49114 35.5131 1 44 1C52.4869 1 60.6262 4.49114 66.6274 10.7054C72.6286 16.9197 76 25.3481 76 34.1364Z" fill="#ED2727" stroke="#BD0F0F" stroke-width="2" stroke-linecap="round" stroke-linejoin="round"/>
<path d="M51.8235 13V15.3957M51.8235 36.9572V39.3529M42.5042 16.8571L44.2051 18.5581M59.4419 33.7949L61.1429 35.4958M38.6471 26.1765H41.0428M62.6043 26.1765H65M42.5042 35.4958L44.2051 33.7949M59.4419 18.5581L61.1429 16.8571" stroke="white" stroke-width="2" stroke-linecap="round" stroke-linejoin="round"/>
<path d="M51.8236 34.4117C56.3718 34.4117 60.0588 30.7247 60.0588 26.1765C60.0588 21.6282 56.3718 17.9412 51.8236 17.9412C47.2753 17.9412 43.5883 21.6282 43.5883 26.1765C43.5883 30.7247 47.2753 34.4117 51.8236 34.4117Z" fill="#FFCC00"/>
<path d="M51.0098 31.9412H48.9345C48.3183 29.5546 47.045 27.3887 45.2594 25.6896C43.4737 23.9905 41.2472 22.8264 38.833 22.3294C36.4187 21.8325 33.9135 22.0227 31.602 22.8784C29.2904 23.7341 27.2652 25.2211 25.7566 27.1703C24.2479 29.1195 23.3162 31.4528 23.0673 33.9051C22.8185 36.3573 23.2625 38.8302 24.3489 41.0428C25.4352 43.2553 27.1204 45.1188 29.213 46.4214C31.3055 47.724 33.7214 48.4136 36.1863 48.4118H51.0098C53.194 48.4118 55.2886 47.5441 56.8331 45.9997C58.3775 44.4553 59.2451 42.3606 59.2451 40.1765C59.2451 37.9923 58.3775 35.8977 56.8331 34.3533C55.2886 32.8088 53.194 31.9412 51.0098 31.9412Z" fill="white" stroke="#C2C2C2" stroke-width="2" stroke-linecap="round" stroke-linejoin="round"/>
<defs>
<linearGradient id="paint0_linear_1_112" x1="0" y1="91" x2="88" y2="91" gradientUnits="userSpaceOnUse">
<stop stop-color="#34C759"/>
<stop offset="1" stop-color="#007AFF"/>
</linearGradient>
</defs>
</svg>
