<svg width="88" height="131" viewBox="0 0 88 131" fill="none" xmlns="http://www.w3.org/2000/svg">
<g clip-path="url(#clip0_5_3)">
<path d="M28 115L60 131V67L28 51V115Z" fill="url(#paint0_linear_5_3)"/>
<path d="M60 131L88 115V51L60 67V131Z" fill="#007AFF"/>
<path d="M0 67V131L28 115V51L0 67Z" fill="#34C759"/>
<path d="M76 34.1364C76 59.9091 44 82 44 82C44 82 12 59.9091 12 34.1364C12 25.3481 15.3714 16.9197 21.3726 10.7054C27.3737 4.49114 35.5131 1 44 1C52.4869 1 60.6262 4.49114 66.6274 10.7054C72.6286 16.9197 76 25.3481 76 34.1364Z" fill="#ED2727" stroke="#BD0F0F" stroke-width="2" stroke-linecap="round" stroke-linejoin="round"/>
<path d="M54.4999 10V13M54.4999 40V43M42.83 14.83L44.9599 16.96M64.04 36.0401L66.17 38.17M38 26.5001H41M68 26.5001H71M42.83 38.17L44.9599 36.0401M64.04 16.96L66.17 14.83" stroke="white" stroke-width="2" stroke-linecap="round" stroke-linejoin="round"/>
<path d="M54.5001 37C60.2991 37 65 32.299 65 26.5001C65 20.701 60.2991 16 54.5001 16C48.701 16 44 20.701 44 26.5001C44 32.299 48.701 37 54.5001 37Z" fill="#FFCC00"/>
<path d="M53.5483 33.75H50.9144C50.1324 30.6708 48.5164 27.8764 46.2502 25.6843C43.9839 23.4922 41.1582 21.9903 38.0943 21.349C35.0302 20.708 31.8507 20.9534 28.9171 22.0574C25.9834 23.1614 23.4131 25.0799 21.4985 27.5947C19.5838 30.1095 18.4013 33.1199 18.0854 36.2838C17.7697 39.4475 18.3332 42.638 19.7119 45.4927C21.0906 48.3472 23.2294 50.7514 25.8852 52.432C28.5408 54.1126 31.6069 55.0023 34.7352 55H53.5483C56.3203 55 58.9787 53.8805 60.9388 51.888C62.8989 49.8954 64 47.1929 64 44.375C64 41.557 62.8989 38.8546 60.9388 36.862C58.9787 34.8693 56.3203 33.75 53.5483 33.75Z" fill="white" stroke="#C2C2C2" stroke-width="2" stroke-linecap="round" stroke-linejoin="round"/>
</g>
<defs>
<linearGradient id="paint0_linear_5_3" x1="1.3113e-06" y1="91" x2="88" y2="91" gradientUnits="userSpaceOnUse">
<stop stop-color="#34C759"/>
<stop offset="1" stop-color="#007AFF"/>
</linearGradient>
<clipPath id="clip0_5_3">
<rect width="88" height="131" fill="white"/>
</clipPath>
</defs>
</svg>
